<svg width="145" height="49" viewBox="0 0 145 49" fill="none" xmlns="http://www.w3.org/2000/svg">
<path d="M5.18298 11.3904C5.18298 10.2967 4.97302 9.59357 4.5531 9.28107C4.33826 9.11505 4.05017 9.00763 3.68884 8.9588C3.32751 8.90021 2.88318 8.8465 2.35583 8.79767V7.52325H10.9691V8.79767C10.3832 8.85626 9.90466 8.91486 9.53357 8.97345C9.17224 9.02228 8.88904 9.12482 8.68396 9.28107C8.3324 9.56427 8.15662 10.2625 8.15662 11.3758V23.6512C8.15662 26.4051 8.0199 28.4022 7.74646 29.6424C7.47302 30.8729 7.17029 31.8494 6.83826 32.5721C6.50623 33.3045 6.08142 33.9881 5.56384 34.6229C4.59705 35.824 3.15173 37.0203 1.22791 38.2117L0.43689 37.2156C1.86267 35.8289 2.8197 34.7254 3.30798 33.9051C3.80603 33.0945 4.16248 32.3768 4.37732 31.7518C4.59216 31.1268 4.75818 30.4432 4.87537 29.701C5.08044 28.4998 5.18298 26.6639 5.18298 24.1932V11.3904ZM53.2738 28.7342L53.3031 28.7195L53.7719 28.6463C54.6605 28.5291 55.1976 28.368 55.3832 28.1629C55.6664 27.8406 55.808 27.1375 55.808 26.0535V11.3758C55.808 10.2625 55.6908 9.59845 55.4564 9.38361C55.222 9.16876 54.9388 9.03204 54.6068 8.97345C54.2748 8.90509 53.8304 8.8465 53.2738 8.79767V7.52325H61.2865V8.79767C60.7396 8.85626 60.3002 8.91486 59.9681 8.97345C59.6361 9.02228 59.3822 9.12482 59.2064 9.28107C58.9135 9.5545 58.767 10.2527 58.767 11.3758V26.0535C58.767 27.1473 58.8549 27.8016 59.0306 28.0164C59.2064 28.2313 59.4213 28.3729 59.6752 28.4412C59.9388 28.4998 60.2904 28.5633 60.7299 28.6317L61.2865 28.7195V29.9354H53.2738V28.7342ZM82.2484 14.95C82.2972 14.3641 82.3217 13.9002 82.3217 13.5584C82.3217 12.826 82.2435 12.2059 82.0873 11.6981C81.9408 11.1805 81.6771 10.7508 81.2963 10.409C80.9154 10.0574 80.4711 9.76447 79.9633 9.53009C78.9086 9.05157 77.8246 8.81232 76.7113 8.81232C75.6078 8.81232 74.6703 8.95392 73.8988 9.23712C73.1273 9.51056 72.4486 9.88654 71.8627 10.3651C71.2865 10.8436 70.7933 11.41 70.3832 12.0643C69.973 12.7186 69.641 13.4217 69.3871 14.1736C68.889 15.6092 68.64 17.2108 68.64 18.9783C68.64 21.4002 69.2943 23.4901 70.6029 25.2479C71.5306 26.4783 72.7904 27.3475 74.3822 27.8553C75.1927 28.119 76.0326 28.2508 76.9017 28.2508C77.7709 28.2508 78.5179 28.202 79.1429 28.1043C79.7679 27.9969 80.3539 27.8358 80.9008 27.6209C81.9945 27.2108 83.0004 26.5565 83.9183 25.658L84.6508 26.6395C83.8988 27.7625 82.8344 28.6561 81.4574 29.3201C80.0902 29.9744 78.4398 30.3016 76.5062 30.3016C72.932 30.3016 70.1097 29.1443 68.0394 26.8299C66.1449 24.6912 65.1976 22.0399 65.1976 18.8758C65.1976 16.8934 65.6273 15.0233 66.4867 13.2654C67.8734 10.4432 70.0902 8.57794 73.1371 7.66974C74.182 7.367 75.1342 7.21564 75.9935 7.21564C76.8529 7.21564 77.4779 7.24005 77.8685 7.28888C78.2592 7.32794 78.6156 7.38654 78.9379 7.46466C79.2601 7.53302 79.5531 7.61115 79.8168 7.69904L80.5638 7.94806C81.4135 8.24103 82.0824 8.38751 82.5707 8.38751C83.059 8.38751 83.601 7.98712 84.1967 7.18634H85.5883L83.6547 14.95H82.2484ZM99.0355 28.4119C101.965 28.4119 104.294 27.494 106.023 25.658L106.755 26.6395C105.456 28.407 103.518 29.5447 100.94 30.0526C100.129 30.2186 99.2894 30.3016 98.4203 30.3016C96.7308 30.3016 95.2074 30.0086 93.85 29.4227C92.4926 28.827 91.3402 28.0262 90.3929 27.0203C88.4301 24.9402 87.4486 22.3719 87.4486 19.3152C87.4486 16.0926 88.3422 13.3143 90.1293 10.9803C91.3304 9.40802 92.8783 8.3045 94.7728 7.66974C95.7299 7.35724 96.6185 7.20099 97.4388 7.20099C98.2689 7.20099 98.8793 7.2254 99.2699 7.27423C99.6703 7.32306 100.027 7.38654 100.339 7.46466C100.652 7.54279 100.93 7.63068 101.174 7.72833C101.428 7.81622 101.702 7.909 101.995 8.00665C102.795 8.28009 103.44 8.41681 103.928 8.41681C104.416 8.41681 104.949 8.01642 105.525 7.21564H106.931L104.983 14.9793H103.591C103.64 14.2274 103.664 13.7 103.664 13.3973C103.664 12.7527 103.586 12.1863 103.43 11.6981C103.284 11.2 103.03 10.7752 102.668 10.4236C102.307 10.0721 101.877 9.77423 101.379 9.53009C100.383 9.04181 99.2845 8.79767 98.0834 8.79767C96.892 8.79767 95.8666 9.03693 95.0072 9.51544C94.1576 9.99396 93.4398 10.6483 92.8539 11.4783C91.7504 13.0701 91.0912 15.2332 90.8763 17.9676H100.325L99.9291 19.6229H90.8324C90.9301 21.8983 91.682 23.8904 93.0883 25.5994C94.641 27.4744 96.6234 28.4119 99.0355 28.4119Z" fill="#8F0002"/>
<path fill-rule="evenodd" clip-rule="evenodd" d="M31.6422 38.0003C40.1448 38.0003 47.0375 19.0101 47.0375 12.3414C47.0375 5.67266 40.1448 0.266602 31.6422 0.266602C23.1396 0.266602 16.2468 5.67266 16.2468 12.3414C16.2468 19.0101 23.1396 38.0003 31.6422 38.0003ZM34.208 23.0578C37.6258 23.0578 40.3964 17.2325 40.3964 13.398C40.3964 9.56347 37.6258 7.96433 34.208 7.96433C30.7903 7.96433 28.0197 9.56347 28.0197 13.398C28.0197 17.2325 30.7903 23.0578 34.208 23.0578Z" fill="#8F0002"/>
</svg>
